<?xml version="1.0" encoding="utf-8"?>
<!-- Generator: Adobe Illustrator 27.5.0, SVG Export Plug-In . SVG Version: 6.00 Build 0)  -->
<svg version="1.1" xmlns="http://www.w3.org/2000/svg" xmlns:xlink="http://www.w3.org/1999/xlink" x="0px" y="0px"
	 viewBox="0 0 2500 2500" style="enable-background:new 0 0 2500 2500;" xml:space="preserve">
<g id="Background">
	<rect style="fill:transparent;" width="2500" height="2500"/>
</g>
<g id="Illustration">
	<g id="Simple_living_1_">
		<circle style="fill:#F2E6DC;" cx="1250" cy="1250" r="915"/>
		<g>
			<g>
				<polygon style="fill:#776E42;" points="1224.928,1313.195 1347.725,1264.722 1363.883,1904.56 1281.19,1904.042 				"/>
				<path style="fill:#8B865C;" d="M2044.837,1909.586h-749.544l27.29-386.371l-27.29-396.098c0,0,110.57-185.544,361.373-185.544
					c272.612,0,388.171,185.544,388.171,185.544l-27.29,396.098L2044.837,1909.586z"/>
				<path style="fill:#9E9569;" d="M1341.205,1911.023h-168.038v-526.707c0-44.634,36.183-80.816,80.816-80.816h0
					c48.171,0,87.222,39.05,87.222,87.222V1911.023z"/>
				<path style="fill:#363E44;" d="M2007.495,2091.572c-0.28,0-0.562-0.037-0.846-0.105c-2.833-0.704-8.729-2.17-26.998-88.481
					c-8.897-42.029-16.446-84.242-16.521-84.664c-0.213-1.199,0.583-2.345,1.783-2.558c1.201-0.211,2.347,0.586,2.558,1.783
					c13.797,77.317,32.166,161.428,39.797,169.235c6.897-12.88,3.35-130.291-0.79-207.421c-0.065-1.217,0.868-2.254,2.084-2.321
					c1.18-0.093,2.254,0.868,2.321,2.084c1.081,20.145,10.251,197.2-0.467,210.898
					C2009.627,2091.031,2008.594,2091.572,2007.495,2091.572z"/>
				<path style="fill:#363E44;" d="M1207.175,2085.549c-1.098,0-2.132-0.541-2.922-1.55c-10.716-13.7-1.546-190.756-0.465-210.9
					c0.067-1.217,1.094-2.138,2.32-2.084c1.215,0.067,2.149,1.104,2.083,2.321c-4.144,77.235-7.695,194.86-0.798,207.432
					c7.628-7.753,26.005-91.898,39.806-169.246c0.213-1.199,1.351-2.002,2.558-1.783c1.198,0.213,1.997,1.359,1.783,2.558
					c-0.075,0.422-7.623,42.634-16.52,84.664c-18.271,86.313-24.166,87.779-26.999,88.483
					C1207.737,2085.513,1207.454,2085.549,1207.175,2085.549z M1207.726,2081.282h0.023H1207.726z"/>
				<polygon style="fill:#9E9569;" points="1964.108,1745.26 1250.864,1745.26 1282.204,1656.475 1934.697,1656.475 				"/>
				<rect x="1250.864" y="1775.442" style="fill:#776E42;" width="697.445" height="134.144"/>
			</g>
			<g>
				<g>
					<g>
						<g>
							<polygon style="fill:#E2A18D;" points="1141.337,1872.795 1118.85,1984.525 1263.722,2017.522 1300.183,1874.304 							"/>
							<g>
								<path style="fill:#E6D0BE;" d="M965.834,2094.891h316.028v-135.506h-192.008c-68.495,0-124.02,55.526-124.02,124.02
									V2094.891z"/>
								<path style="fill:#363E44;" d="M1112.732,1988.583c-0.54,0-1.082-0.198-1.507-0.596l-27.884-26.133
									c-0.889-0.833-0.935-2.229-0.101-3.116c0.832-0.889,2.226-0.934,3.116-0.101l27.884,26.133
									c0.889,0.833,0.934,2.229,0.101,3.116C1113.906,1988.348,1113.319,1988.583,1112.732,1988.583z"/>
								<path style="fill:#363E44;" d="M1081.031,1997.496c-0.541,0-1.082-0.198-1.507-0.596l-27.884-26.133
									c-0.889-0.833-0.935-2.229-0.101-3.116c0.83-0.889,2.226-0.932,3.116-0.101l27.884,26.133
									c0.889,0.833,0.934,2.228,0.101,3.116C1082.205,1997.262,1081.619,1997.496,1081.031,1997.496z"/>
							</g>
						</g>
						<path style="fill:#2D353A;" d="M1820.02,1381.438l-245.28-29.444l-2.58,77.369l-290.977,4.813
							c-40.941,0.677-77.052,26.979-90.257,65.738l-144.405,423.881h292.108l42.562-277.954
							c121.111-0.972,270.736-1.449,338.769,1.88C1891.442,1656.115,1820.02,1381.438,1820.02,1381.438z"/>
					</g>
					<g>
						<g>
							<polygon style="fill:#E2A18D;" points="1281.19,1904.042 1258.703,2015.772 1403.575,2048.769 1440.037,1905.551 							"/>
							<g>
								<path style="fill:#FFFFFF;" d="M1105.688,2126.138h316.028v-135.506h-192.008c-68.494,0-124.02,55.526-124.02,124.02
									V2126.138z"/>
								<path style="fill:#363E44;" d="M1252.586,2019.831c-0.54,0-1.082-0.198-1.507-0.596l-27.885-26.135
									c-0.889-0.833-0.934-2.229-0.101-3.116c0.832-0.891,2.226-0.935,3.116-0.101l27.885,26.135
									c0.889,0.833,0.934,2.229,0.101,3.115C1253.761,2019.596,1253.174,2019.831,1252.586,2019.831z"/>
								<path style="fill:#363E44;" d="M1220.884,2028.743c-0.54,0-1.082-0.198-1.507-0.596l-27.884-26.133
									c-0.889-0.833-0.934-2.229-0.101-3.116c0.83-0.889,2.226-0.934,3.116-0.101l27.884,26.133
									c0.889,0.833,0.934,2.229,0.101,3.116C1222.059,2028.508,1221.472,2028.743,1220.884,2028.743z"/>
							</g>
						</g>
						<path style="fill:#363E44;" d="M1959.873,1412.685l-257.303-69.309l-11.49,77.56c-5.168,26.21-8.986,39.168-35.695,39.712
							l-234.349,4.775c-40.941,0.677-77.052,26.979-90.257,65.738l-144.405,423.881h292.107l42.563-277.954
							c121.111-0.972,270.736-1.449,338.769,1.88C2031.295,1687.362,1959.873,1412.685,1959.873,1412.685z"/>
						<path style="fill:#E6D0BE;" d="M1294.76,1639.198c-0.218,0-0.441-0.032-0.661-0.101c-1.161-0.364-1.806-1.602-1.443-2.765
							c3.204-10.208,6.197-20.214,9.093-29.888c21.531-71.969,38.537-128.816,104.725-142.353c1.188-0.241,2.358,0.523,2.601,1.718
							c0.245,1.193-0.525,2.358-1.718,2.601c-63.602,13.009-80.276,68.739-101.383,139.298c-2.9,9.689-5.897,19.708-9.11,29.946
							C1296.568,1638.595,1295.698,1639.198,1294.76,1639.198z"/>
					</g>
				</g>
				<g>
					<g>
						<path style="fill:#E2A18D;" d="M1464.678,1002.399c0.003-0.002,0.005-0.005,0.003-0.008
							c-41.511-112.639-68.803-193.35-78.208-217.936c-0.985-2.575-2.703-7.127-6.455-12.217
							c-13.904-18.862-33.461-14.888-57.13-28.05c-26.857-14.934-33.524-38.549-40.86-35.761c-5.103,1.939-5.096,11.555,2.06,29.567
							l-0.003,0.001c-7.01-13.06-17.29-30.356-24.496-26.461c-8.08,4.942,1.611,26.682,8.117,39.547
							c-7.874-15.572-16.72-21.496-20.197-18.323c-5.472,4.994-2.178,18.491,9.028,38.667c0,0-0.001,0.002-0.001,0.001
							c-11.629-11.77-16.204-12.892-18.593-9.338c-4.362,6.489,5.162,22.903,15.807,36.123
							c11.983,14.883,26.44,22.268,35.666,26.707c0.002,0.001,0.005,0.003,0.005,0.003c20.895,81.907,34.224,134.604,49.751,201.096
							c3.177,13.603,17.329,21.566,30.609,17.233C1405.685,1031.536,1425.69,1024.299,1464.678,1002.399z"/>
						<path style="fill:#E2A18D;" d="M1341.783,761.324c-8.669-29.144-5.62-41.494-0.957-42.72
							c7.841-2.063,25.427,19.789,43.462,60.788C1371.995,775.42,1354.076,765.296,1341.783,761.324z"/>
						<path style="fill:#363E44;" d="M1336.638,813.918c-0.952,0-1.83-0.62-2.114-1.578c-1.449-4.89-4.625-11.941-11.534-17.763
							c-9.784-8.242-21.03-8.746-25.411-8.589c-1.184,0.125-2.239-0.904-2.285-2.121c-0.045-1.216,0.904-2.239,2.121-2.284
							c4.872-0.177,17.455,0.388,28.417,9.622c7.743,6.526,11.3,14.415,12.921,19.882c0.344,1.167-0.321,2.394-1.488,2.741
							C1337.056,813.89,1336.845,813.918,1336.638,813.918z"/>
						<path style="fill:#363E44;" d="M1367.928,764.742c-0.373,0-0.752-0.095-1.098-0.293c-5.527-3.182-11.872-5.026-18.59-6.976
							c-3.251-0.945-6.612-1.921-10.113-3.105c-1.154-0.39-1.772-1.641-1.382-2.795c0.39-1.156,1.643-1.772,2.795-1.382
							c3.411,1.154,6.726,2.117,9.93,3.047c6.981,2.028,13.571,3.942,19.561,7.387c1.055,0.609,1.419,1.957,0.812,3.012
							C1369.433,764.346,1368.69,764.742,1367.928,764.742z"/>
						<path style="fill:#363E44;" d="M1304.249,759.15c-0.392,0-0.788-0.103-1.146-0.323c-3.279-2-6.382-4.311-9.224-6.866
							c-4.13-3.714-7.751-7.977-10.768-12.673c-0.657-1.023-0.359-2.388,0.665-3.047c1.023-0.661,2.386-0.362,3.047,0.665
							c2.801,4.362,6.169,8.324,10.006,11.778c2.64,2.373,5.523,4.519,8.569,6.38c1.04,0.633,1.369,1.99,0.734,3.029
							C1305.717,758.776,1304.991,759.15,1304.249,759.15z"/>
						<path style="fill:#363E44;" d="M1286.92,770.183c-0.392,0-0.788-0.103-1.148-0.323c-3.279-2.002-6.382-4.313-9.222-6.868
							c-4.123-3.708-7.747-7.971-10.766-12.669c-0.659-1.025-0.362-2.39,0.661-3.047c1.029-0.661,2.39-0.362,3.047,0.661
							c2.808,4.369,6.175,8.331,10.008,11.778c2.638,2.373,5.523,4.519,8.572,6.382c1.038,0.635,1.367,1.992,0.732,3.032
							C1288.388,769.808,1287.663,770.183,1286.92,770.183z"/>
						<path style="fill:#363E44;" d="M1276.187,792.75c-0.392,0-0.788-0.103-1.145-0.323c-3.273-1.994-6.373-4.304-9.222-6.866
							c-4.13-3.714-7.751-7.977-10.768-12.673c-0.657-1.023-0.36-2.388,0.665-3.047c1.023-0.663,2.388-0.362,3.047,0.665
							c2.801,4.362,6.169,8.324,10.006,11.778c2.646,2.379,5.527,4.526,8.567,6.38c1.04,0.633,1.369,1.99,0.734,3.029
							C1277.655,792.373,1276.929,792.75,1276.187,792.75z"/>
					</g>
					<path style="fill:#FFFFFF;" d="M1898.474,960.901c0,0-157.926-31.66-284.406,0.829l-45.074,487.945
						c22.776,35.989,255.66,70.378,415.089,35.907L1898.474,960.901z"/>
					<path style="fill:#84524D;" d="M1709.134,946.058l-65.462,553.886l-88.332-53.861l27.117-314.104
						c0,0-254.848,8.272-277.088-192.929l122.097-55.97c0,0,7.45,63.263,99.306,73.417
						C1618.628,966.65,1642.479,947.25,1709.134,946.058z"/>
					<path style="fill:#84524D;" d="M1814.515,947.3c-1.291,3.745,38.138,559.108,38.138,559.108l118.495-4.309l19.152-239.279
						c0,0,32.041,19.117,76.816-6.477c44.775-25.594,27.778-160.484-46.139-234.389C1938.059,939.05,1814.515,947.3,1814.515,947.3z
						"/>
					<g>
						<polygon style="fill:#F2E6DC;" points="1565.866,1028.243 1583.3,1016.449 1713.03,1071.315 1696.109,1077.468 						"/>
						<polygon style="fill:#F2E6DC;" points="1721.234,1075.93 1861.219,1034.396 1834.042,1023.115 1707.902,1071.828 						"/>
						<polygon style="fill:#EFBC73;" points="1562.619,1025.679 1704.142,1071.486 1703.116,1295.393 1558.346,1214.376 						"/>
						<rect x="1702.433" y="1070.802" style="fill:#FFD092;" width="23.245" height="224.249"/>
						<polygon style="fill:#EFBC73;" points="1723.798,1070.802 1866.346,1028.243 1865.834,1243.604 1725.678,1295.051 						"/>
					</g>
					<g>
						<path style="fill:#E2A18D;" d="M1829.108,1202.586c23.533-9.911,45.083-28.884,59.131-49.752
							c5.627-8.359,10.237-17.608,14.256-26.902c-9.394-6.205-16.395-10.793-19.798-12.952c-2.305-1.462-6.36-4.061-12.351-5.883
							c-22.193-6.755-35.371,7.965-61.947,11.511c-30.156,4.023-49.413-10.784-53.59-4.233c-2.905,4.557,2.787,12.187,19.12,22.258
							l-0.001,0.002c-13.289-6.224-31.678-13.878-35.097-6.525c-3.493,8.702,17.057,20.232,29.83,26.6
							c-15.46-7.707-25.987-7.181-26.872-2.606c-1.391,7.201,9.205,15.97,30.033,25.363l-0.001,0.002
							c-16.193-2.469-20.489-0.654-20.285,3.581c0.374,7.731,17.642,15.132,33.911,19.334
							C1803.495,1207.047,1819.134,1204.509,1829.108,1202.586z"/>
						<path style="fill:#E2A18D;" d="M1842.082,1115.792c20.434-22.703,12.405-42.319,16.39-44.945
							c6.703-4.416,16.85,12.806,29.2,48.443C1874.884,1119.454,1854.871,1115.628,1842.082,1115.792z"/>
						<g>
							<path style="fill:#363E44;" d="M1795.643,1142.218c-1.899,0-3.798-0.088-5.684-0.263c-5.469-0.508-10.867-1.75-16.045-3.695
								c-1.139-0.428-1.716-1.701-1.29-2.84c0.431-1.143,1.699-1.71,2.84-1.29c4.81,1.807,9.825,2.963,14.902,3.432
								c3.514,0.327,7.069,0.329,10.574-0.002c1.186-0.118,2.287,0.779,2.401,1.992c0.112,1.212-0.779,2.287-1.992,2.401
								C1799.457,1142.13,1797.551,1142.218,1795.643,1142.218z"/>
							<path style="fill:#363E44;" d="M1788.409,1161.224c-1.899,0-3.798-0.088-5.684-0.263c-5.469-0.508-10.867-1.75-16.045-3.695
								c-1.139-0.428-1.716-1.701-1.29-2.84c0.431-1.141,1.699-1.716,2.84-1.29c4.81,1.807,9.825,2.963,14.902,3.432
								c3.507,0.329,7.067,0.327,10.574-0.002c1.195-0.116,2.287,0.779,2.401,1.992c0.112,1.212-0.78,2.287-1.992,2.401
								C1792.222,1161.136,1790.314,1161.224,1788.409,1161.224z"/>
							<path style="fill:#363E44;" d="M1793.223,1185.488c-1.899,0-3.796-0.086-5.676-0.26c-5.465-0.508-10.865-1.75-16.045-3.695
								c-1.139-0.428-1.716-1.699-1.29-2.84c0.431-1.143,1.701-1.712,2.84-1.29c4.812,1.809,9.827,2.963,14.902,3.432
								c3.499,0.327,7.052,0.325,10.576-0.002c1.223-0.116,2.284,0.782,2.399,1.994c0.112,1.212-0.779,2.284-1.994,2.399
								C1797.038,1185.4,1795.129,1185.488,1793.223,1185.488z"/>
						</g>
						<path style="fill:#E2A18D;" d="M2020.919,1136.782l-167.98-29.812c-4.189-0.743-8.276,1.747-9.536,5.811l-26.487,85.447
							l181.856,52.19c31.886,6.774,63.076-14.101,68.971-46.161l0,0C2073.551,1172.672,2052.54,1142.394,2020.919,1136.782z"/>
					</g>
				</g>
				<g>
					<path style="fill:#E2A18D;" d="M1733.5,963.55c15.958,24.177,51.223,28.307,63.355-8.088l6.578-105.356l-66.455-5.726
						L1733.5,963.55z"/>
					<path style="fill:#E2A18D;" d="M1767.59,789.707c-2.809-0.611-29.798-6.057-48.413,10.641
						c-13.851,12.425-17.417,30.05-18.929,60.516c-1.781,35.878,2.167,57.574,11.584,65.808
						c14.878,13.01,66.317-6.092,88.225-35.017c15.814-20.879,17.721-49.948,6.423-73.781
						C1795.213,794.107,1769.384,790.097,1767.59,789.707z"/>
					<path style="fill:#363E44;" d="M1732.892,933.684c-1.092,0-2.039-0.807-2.183-1.918c-0.159-1.208,0.691-2.315,1.899-2.472
						c20.201-2.644,50.302-17.529,65.705-37.861c0.732-0.971,2.114-1.165,3.088-0.426c0.971,0.734,1.163,2.119,0.426,3.088
						c-16.706,22.055-47.836,36.849-68.647,39.57C1733.084,933.678,1732.987,933.684,1732.892,933.684z"/>
					<g>
						<path style="fill:#FFFFFF;" d="M1758.063,852.14c0,0-4.484,10.059-13.736,17.179c-1.944,1.496-10.304-17.076-7.749-17.625
							C1747.763,849.286,1758.063,852.14,1758.063,852.14z"/>
						<path style="fill:#363E44;" d="M1708.687,875.419c0,0,6.565-14.729,20.2-21.157c2.53-1.194,5.125-2.015,7.675-2.565
							c5.316,3.988,8.454,10.551,7.801,17.587c-1.955,1.508-4.118,2.888-6.501,4.012
							C1724.228,879.726,1708.687,875.419,1708.687,875.419z"/>
					</g>
					<path style="fill:#363E44;" d="M1728.016,775.181c12.827-9.076,31.016-11.49,48.406-8.6l-20.369,5.667l32.381-2.779
						c13.613,4.336,25.732,11.999,32.991,22.292c19.21,27.238,16.855,52.137-15.444,106.853
						c-1.492-17.529-0.862-43.405-12.375-49.273c-7.444-3.793-15.195-2.489-18.838-1.586c-2.152-17.47-2.474-33.703-17.899-36.753
						c-16.356-3.234-43.805,11.058-45.63,12.581C1711.126,819.998,1705.197,791.326,1728.016,775.181z"/>
					<g>
						
							<ellipse transform="matrix(0.5314 -0.8471 0.8471 0.5314 111.8484 1918.4391)" style="fill:#E2A18D;" cx="1790.068" cy="858.116" rx="22.613" ry="19.113"/>
						<path style="fill:#363E44;" d="M1796.896,867.339c-0.527,0-1.055-0.187-1.475-0.566c-0.906-0.816-0.978-2.209-0.164-3.113
							c0.428-0.476,0.823-0.999,1.171-1.555c2.719-4.336,2.08-9.657-1.425-11.857c-0.816-0.51-1.733-0.818-2.724-0.915
							c-1.212-0.116-2.101-1.193-1.983-2.405c0.116-1.214,1.217-2.097,2.405-1.983c1.679,0.161,3.243,0.689,4.644,1.567
							c5.566,3.495,6.83,11.541,2.818,17.938c-0.487,0.771-1.034,1.499-1.63,2.16C1798.1,867.094,1797.499,867.339,1796.896,867.339
							z"/>
					</g>
					<path style="fill:#363E44;" d="M1776.495,835.961c-2.851-0.407-2.503,32.535-13.465,44.431
						c-15.591,16.917-40.306,15.702-62.519,12.786c-5.468,9.978-27.699,51.987-14.015,66.274
						c14.113,14.734,65.268-1.231,86.818-36.093C1792.345,892.571,1781.045,836.61,1776.495,835.961z"/>
					<path style="fill:#E2A18D;" d="M1720.406,912.153c-3.505,0-6.873-2.054-8.567-5.376c-0.553-1.085-0.123-2.411,0.962-2.965
						c1.085-0.558,2.412-0.123,2.965,0.963c1.077,2.11,3.329,3.299,5.482,2.889c2.657-0.506,3.74-3.365,3.751-3.393
						c0.42-1.135,1.684-1.729,2.818-1.322c1.139,0.411,1.738,1.651,1.337,2.795c-0.075,0.213-1.901,5.264-7.08,6.253
						C1721.519,912.101,1720.959,912.153,1720.406,912.153z"/>
					<path style="fill:#E2A18D;" d="M1702.604,864.05c-8.95,9.124-16.369,14.513-14.285,20.327
						c2.723,7.595,14.629,8.73,15.361,8.677L1702.604,864.05z"/>
				</g>
			</g>
			<g>
				<path style="fill:#9E9569;" d="M2097.377,1909.993h-168.038v-528.908c0-44.634,36.183-80.816,80.816-80.816l0,0
					c48.172,0,87.222,39.051,87.222,87.222V1909.993z"/>
				<path style="fill:#E6D0BE;" d="M1929.338,1909.997c-0.002,0-0.002,0-0.004,0c-1.219-0.002-2.203-0.993-2.201-2.209
					l0.874-429.406c0.002-1.216,0.988-2.2,2.205-2.2c0.002,0,0.002,0,0.004,0c1.219,0.002,2.203,0.993,2.2,2.209l-0.874,429.406
					C1931.541,1909.013,1930.555,1909.997,1929.338,1909.997z"/>
			</g>
		</g>
		<g>
			<g>
				<g>
					<path style="fill:#776E42;" d="M693.485,1283.658c-12.513,17.795-5.974,43.952-5.974,43.952s26.827-2.695,39.34-20.49
						c12.513-17.795,5.974-43.952,5.974-43.952S705.998,1265.863,693.485,1283.658z"/>
					<path style="fill:#776E42;" d="M623.416,1351.852c12.039,18.644,39.745,22.17,39.745,22.17s8.188-26.703-3.851-45.347
						c-12.039-18.644-39.745-22.17-39.745-22.17S611.377,1333.207,623.416,1351.852z"/>
					<path style="fill:#776E42;" d="M619.185,1528.042c-17.978,19.81-14.321,52.413-14.321,52.413s32.804,0.486,50.782-19.324
						s14.322-52.413,14.322-52.413S637.162,1508.233,619.185,1528.042z"/>
					<path style="fill:#776E42;" d="M683.92,1458.401c23.923-6.34,37.009-35.277,37.009-35.277s-25.7-18.657-49.623-12.317
						c-23.923,6.34-37.009,35.277-37.009,35.277S659.998,1464.741,683.92,1458.401z"/>
					<path style="fill:#363E44;" d="M620.679,1848.307c-1.014,0-1.927-0.704-2.152-1.735
						c-9.429-43.313-21.178-143.563-20.94-194.481c0.7-150.251,52.705-267.989,96.207-340.302c0.627-1.042,1.982-1.382,3.026-0.751
						c1.043,0.626,1.38,1.981,0.753,3.025c-43.218,71.838-94.88,188.801-95.576,338.05c-0.237,50.659,11.456,150.416,20.839,193.52
						c0.259,1.191-0.495,2.364-1.685,2.625C620.992,1848.292,620.834,1848.307,620.679,1848.307z"/>
					<path style="fill:#8B865C;" d="M651.961,1670.996c-14.012,22.646-46.21,28.109-46.21,28.109s-9.482-31.252,4.53-53.898
						c14.012-22.646,46.211-28.109,46.211-28.109S665.972,1648.35,651.961,1670.996z"/>
				</g>
				<g>
					<path style="fill:#8B865C;" d="M436.755,1247.023c9.95,19.234-3.75,46.087-3.75,46.087s-29.833-4.332-39.783-23.567
						c-9.95-19.234,3.75-46.087,3.75-46.087S426.805,1227.789,436.755,1247.023z"/>
					<path style="fill:#8B865C;" d="M521.926,1322.205c-12.963,20.95-44.311,25.04-44.311,25.04s-10.332-29.878,2.63-50.829
						c12.963-20.95,44.311-25.04,44.311-25.04S534.888,1301.254,521.926,1322.205z"/>
					<path style="fill:#8B865C;" d="M600.58,1460.192c-14.011,22.646-46.211,28.109-46.211,28.109s-9.482-31.252,4.53-53.898
						c14.011-22.646,46.211-28.109,46.211-28.109S614.592,1437.546,600.58,1460.192z"/>
					<path style="fill:#8B865C;" d="M532.777,1582.127c-19.989-17.596-20-50.255-20-50.255s32.397-4.131,52.385,13.465
						c19.989,17.596,20,50.255,20,50.255S552.765,1599.723,532.777,1582.127z"/>
					<path style="fill:#8B865C;" d="M469.23,1431.677c-24.575-1.735-42.772-27.587-42.772-27.587s21.648-23.04,46.223-21.305
						c24.575,1.735,42.772,27.587,42.772,27.587S493.806,1433.412,469.23,1431.677z"/>
					<path style="fill:#363E44;" d="M582.647,1871.68c-0.157,0-0.318-0.017-0.478-0.052c-1.189-0.263-1.94-1.44-1.677-2.629
						c19.63-88.852,20.824-178.661,3.548-266.934c-28.537-145.809-100.881-250.531-156.547-312.708
						c-0.812-0.906-0.735-2.302,0.172-3.113c0.909-0.814,2.301-0.734,3.113,0.172c56.033,62.588,128.859,168.008,157.589,314.8
						c17.393,88.873,16.192,179.288-3.57,268.734C584.571,1870.98,583.659,1871.68,582.647,1871.68z"/>
				</g>
				<g>
					<path style="fill:#776E42;" d="M444.96,1456.285c12.922,13.083,11.131,35.804,11.131,35.804s-22.741,1.508-35.663-11.575
						c-12.922-13.083-11.131-35.804-11.131-35.804S432.038,1443.202,444.96,1456.285z"/>
					<path style="fill:#776E42;" d="M512.914,1503.327c-7.427,17.227-30.03,24.044-30.03,24.044s-10.563-21.114-3.136-38.341
						s30.03-24.044,30.03-24.044S520.341,1486.1,512.914,1503.327z"/>
					<path style="fill:#776E42;" d="M576.159,1657.159c-6.257,21.729-31.327,33.587-31.327,33.587s-14.925-23.374-8.667-45.103
						s31.327-33.586,31.327-33.586S582.416,1635.429,576.159,1657.159z"/>
					<path style="fill:#776E42;" d="M538.016,1802.462c-15.554-16.414-13.057-44.033-13.057-44.033s27.714-1.008,43.267,15.406
						c15.554,16.414,13.057,44.033,13.057,44.033S553.57,1818.876,538.016,1802.462z"/>
					<path style="fill:#776E42;" d="M477.388,1600.617c-20.83-1.937-35.789-24.228-35.789-24.228s18.813-19.15,39.643-17.213
						c20.83,1.937,35.789,24.228,35.789,24.228S498.218,1602.554,477.388,1600.617z"/>
					<path style="fill:#363E44;" d="M582.023,1873.148c-0.036,0-0.072,0-0.108-0.002c-1.216-0.058-2.155-1.092-2.097-2.308
						c1.935-40.238-0.543-80.661-7.362-120.145c-21.453-124.239-80.854-214.46-126.907-268.267
						c-0.791-0.926-0.684-2.317,0.241-3.109c0.926-0.79,2.317-0.68,3.109,0.241c46.413,54.229,106.278,145.156,127.902,270.385
						c6.874,39.801,9.371,80.547,7.422,121.106C584.166,1872.229,583.192,1873.148,582.023,1873.148z"/>
				</g>
			</g>
			<rect x="486.533" y="1832.012" style="fill:#D87355;" width="173.094" height="285.007"/>
		</g>
		<g>
			<rect x="491.201" y="377.4" style="fill:#F7F1EB;" width="681.287" height="844.145"/>
			<g>
				<polygon style="fill:#D3BBA3;" points="900.754,1078.856 584.117,1078.856 584.117,843.297 742.435,730.177 900.754,843.297 
									"/>
				<path style="fill:#BC8271;" d="M900.752,834.261c-0.444,0-0.891-0.134-1.28-0.411L742.435,721.647L585.4,833.849
					c-0.993,0.706-2.371,0.478-3.076-0.512c-0.708-0.991-0.479-2.366,0.511-3.075l158.317-113.12c0.766-0.547,1.798-0.547,2.564,0
					l158.319,113.12c0.99,0.708,1.22,2.084,0.511,3.075C902.118,833.94,901.439,834.261,900.752,834.261z"/>
				<rect x="478.422" y="985.534" style="fill:#E6D0BE;" width="347.821" height="248.152"/>
				<g>
					<polygon style="fill:#D3BBA3;" points="956.886,1224.364 706.323,1224.364 706.323,1052.071 837.356,1032.775 
						956.886,1052.071 					"/>
					<polygon style="fill:#BC8271;" points="956.886,1052.071 706.323,1052.071 831.605,972.075 					"/>
					<g>
						<rect x="739.698" y="1072.349" style="fill:#F7F1EB;" width="183.813" height="121.478"/>
						<g>
							<path style="fill:#FFFFFF;" d="M793.433,1191.857c-1.218,0-2.205-0.986-2.205-2.205v-112.047
								c0-1.219,0.987-2.205,2.205-2.205s2.205,0.986,2.205,2.205v112.047C795.638,1190.871,794.651,1191.857,793.433,1191.857z"/>
							<path style="fill:#FFFFFF;" d="M869.776,1191.857c-1.218,0-2.205-0.986-2.205-2.205v-112.047
								c0-1.219,0.987-2.205,2.205-2.205s2.205,0.986,2.205,2.205v112.047C871.981,1190.871,870.994,1191.857,869.776,1191.857z"/>
						</g>
					</g>
				</g>
				<rect x="505.094" y="1052.071" style="fill:#BC8271;" width="56.152" height="165.493"/>
				<rect x="572.476" y="1052.071" style="fill:#BC8271;" width="56.152" height="165.493"/>
				<g>
					<g>
						<rect x="748.649" y="853.239" style="fill:#F7F1EB;" width="112.109" height="91.379"/>
						<path style="fill:#FFFFFF;" d="M790.723,946.823c-1.218,0-2.205-0.986-2.205-2.205v-91.379c0-1.219,0.987-2.205,2.205-2.205
							s2.205,0.986,2.205,2.205v91.379C792.927,945.836,791.94,946.823,790.723,946.823z"/>
					</g>
					<g>
						<rect x="624.113" y="853.239" style="fill:#F7F1EB;" width="119.779" height="91.379"/>
						<path style="fill:#FFFFFF;" d="M666.92,946.823c-1.218,0-2.205-0.986-2.205-2.205v-91.379c0-1.219,0.987-2.205,2.205-2.205
							s2.205,0.986,2.205,2.205v91.379C669.125,945.836,668.138,946.823,666.92,946.823z"/>
					</g>
				</g>
			</g>
			<g>
				<path style="fill:#FFFFFF;" d="M466.671,358.538v879.474h741.943V358.538H466.671z M1156.136,1185.533H519.15V409.207h636.986
					V1185.533z"/>
				<rect x="805.059" y="387.492" style="fill:#FFFFFF;" width="36.192" height="814.328"/>
			</g>
			<g>
				<circle style="fill:#EFBC73;" cx="1006.099" cy="549.115" r="102.091"/>
			</g>
		</g>
		<g>
			<path style="fill:#E6D0BE;" d="M1659.735,568.898c-1.219,0-2.205-0.986-2.205-2.205v-228.07c0-1.219,0.986-2.205,2.205-2.205
				c1.219,0,2.205,0.986,2.205,2.205v228.07C1661.939,567.912,1660.953,568.898,1659.735,568.898z"/>
			<path style="fill:#E6D0BE;" d="M1535.953,651.495c-1.219,0-2.205-0.986-2.205-2.205V338.624c0-1.219,0.986-2.205,2.205-2.205
				c1.219,0,2.205,0.986,2.205,2.205V649.29C1538.157,650.509,1537.171,651.495,1535.953,651.495z"/>
			
				<rect x="1622.356" y="498.173" transform="matrix(-1 -1.224647e-16 1.224647e-16 -1 3319.4685 1133.3866)" style="fill:#D3BBA3;" width="74.757" height="137.041"/>
			
				<rect x="1498.573" y="580.771" transform="matrix(-1 -1.224647e-16 1.224647e-16 -1 3071.9043 1298.5826)" style="fill:#D3BBA3;" width="74.757" height="137.041"/>
		</g>
	</g>
</g>
</svg>
