<?xml version="1.0" encoding="utf-8"?>
<svg class="bi bi-compass" fill="currentColor" height="16" width="16" xmlns="http://www.w3.org/2000/svg" xmlns:bx="https://boxy-svg.com">
  <path d="M 8.009 15.934 C 13.726 15.938 17.303 9.747 14.447 4.79 C 13.466 3.087 11.849 1.841 9.952 1.328 C 10.134 0.694 9.659 0.063 8.999 0.063 L 7.019 0.063 C 6.361 0.063 5.885 0.694 6.067 1.328 C 0.549 2.821 -1.285 9.733 2.767 13.77 C 4.159 15.157 6.045 15.935 8.009 15.934 Z M 14.445 8.502 C 14.445 13.461 9.083 16.559 4.791 14.08 C 2.8 12.929 1.573 10.804 1.573 8.502 C 1.573 3.544 6.937 0.445 11.227 2.924 C 13.218 4.074 14.445 6.201 14.445 8.502 Z" style="fill: rgba(0, 0, 0, 0.8);"/>
  <path d="M 6.856 7.516 L 11.806 4.686 L 8.976 9.636 L 4.027 12.466 L 6.855 7.516 L 6.856 7.516 Z" style="fill: rgba(0, 0, 0, 0.8);" transform="matrix(0.999827, 0.018574, -0.018574, 0.999827, 0.160656, -0.145562)"/>
  <path d="M 6.788 7.608 L 11.738 4.778 L 8.908 9.728 L 3.959 12.558 L 6.787 7.608 L 6.788 7.608 Z" style="fill: rgba(0, 0, 0, 0.8);" transform="matrix(-0.040648, 0.999174, -0.999174, -0.040648, 16.828362, 1.178323)"/>
  <path d="M 7.818 8.316 L 8.041 8.408 L 8.133 8.631 L 8.041 8.854 L 7.818 8.946 L 7.595 8.854 L 7.503 8.631 L 7.595 8.408 Z" style="fill-rule: nonzero; paint-order: stroke; stroke: rgb(255, 255, 255); fill: rgb(255, 255, 255); stroke-width: 0.5px;" bx:shape="n-gon 7.818 8.631 0.315 0.315 8 0 1@02145f20" bx:origin="0.547 0.518"/>
</svg>